<svg id="Layer_1" data-name="Layer 1" xmlns="http://www.w3.org/2000/svg" viewBox="0 0 171.93 84.22"><defs><style>.cls-1{fill:#fff;}</style></defs><path class="cls-1" d="M85,40.74A1.85,1.85,0,0,0,83,39H81.2a2,2,0,0,0-2,2v4.72a2.05,2.05,0,0,0,2,2.06H83c1.11,0,2-.49,2-1.73h1.73a3.39,3.39,0,0,1-3.63,3.41h-2a3.64,3.64,0,0,1-3.64-3.71v-4.7a3.76,3.76,0,0,1,3.75-3.74H83a3.57,3.57,0,0,1,3.74,3.42Z"/><path class="cls-1" d="M91.56,44.32V46a2,2,0,0,0,2.15,1.84h1.87a1.5,1.5,0,0,0,1.65-1.25h1.82a3.62,3.62,0,0,1-3.45,2.93H93.54a3.59,3.59,0,0,1-3.71-3.58V41a3.7,3.7,0,0,1,3.74-3.69h1.84a3.78,3.78,0,0,1,3.78,3.74v3.26ZM97.45,41a2,2,0,0,0-2-2H93.6a2,2,0,0,0-2,2v1.7h5.89Z"/><path class="cls-1" d="M108.76,49.47H105a2.85,2.85,0,0,1-2.85-2.93h1.71a1.26,1.26,0,0,0,1.3,1.25h3.61A1.22,1.22,0,0,0,110,46.52V45.4a1.18,1.18,0,0,0-1.22-1.22h-3.45a2.82,2.82,0,0,1-2.87-3v-.95a3,3,0,0,1,3-3h2.82a3,3,0,0,1,3,3h-1.74a1.3,1.3,0,0,0-1.36-1.3h-2.77a1.18,1.18,0,0,0-1.21,1.22v1a1.2,1.2,0,0,0,1.21,1.25h3.51a2.77,2.77,0,0,1,2.82,2.93v1.09a2.91,2.91,0,0,1-3,2.95"/><path class="cls-1" d="M117,32.6v2h-2v-2Zm-.14,4.94V49.31h-1.74V37.54Z"/><path class="cls-1" d="M122.22,37.54v8.33a1.88,1.88,0,0,0,2,1.92h2.07a1.82,1.82,0,0,0,2-1.79V37.54H130V49.31h-1.74v-.87a2.84,2.84,0,0,1-2.3,1h-1.79a3.63,3.63,0,0,1-3.67-3.69V37.54Z"/><path class="cls-1" d="M139,39h-1.82a1.86,1.86,0,0,0-2,1.85v8.46h-1.73V37.54h1.73v.86a2.91,2.91,0,0,1,2.28-1.08H139a4.11,4.11,0,0,1,2.63,1.38,3.49,3.49,0,0,1,2.93-1.38H146A3.64,3.64,0,0,1,149.65,41v8.33h-1.74V41a1.86,1.86,0,0,0-1.84-2h-1.55a1.92,1.92,0,0,0-2,1.93v8.38h-1.74V41A2,2,0,0,0,139,39"/><path class="cls-1" d="M38.29,45.83,33,42.8V36.73l11.47,6.62v6.07Zm1.45-20.7,5.25-3L62.67,32.31,45,42.52,33.52,35.9l5.25-3L45,36.45l7.18-4.14Zm-1,.55,11.47,6.63-5.25,3-6.22-3.59-6.21,3.59-5.26-3Zm-12,7.46,5.25,3v7.18l6.22,3.59V53L26.82,46.38Zm0,14.36,12.43,7.18V47.5l5.25,3V63.78L26.82,53.57ZM45.47,63.77V50.53l11.47-6.62V50l-6.22,3.6v7.17ZM63.16,53.56,51.69,60.18V54.12L63.16,47.5Zm-5.25-4.14V43.91l4.76,2.75Zm5.25-10.21L45.47,49.42V43.35L63.16,33.14Z"/></svg>